<?xml version="1.0" encoding="iso-8859-1"?>
<!-- Generator: Adobe Illustrator 19.0.0, SVG Export Plug-In . SVG Version: 6.00 Build 0)  -->
<svg version="1.1" id="Layer_1" xmlns="http://www.w3.org/2000/svg" xmlns:xlink="http://www.w3.org/1999/xlink" x="0px" y="0px"
	 viewBox="0 0 512 512" style="enable-background:new 0 0 512 512;" xml:space="preserve">
<rect x="21.59" y="194.313" style="fill:#EDEDED;" width="468.819" height="234.41"/>
<rect x="441.06" y="194.313" style="fill:#D8D8DA;" width="49.349" height="234.41"/>
<polygon style="fill:#80CB93;" points="502.747,157.301 490.41,169.639 21.59,169.639 9.253,157.301 83.277,83.277 428.723,83.277 
	"/>
<polygon style="fill:#6DC180;" points="428.723,83.277 404.048,83.277 478.072,157.301 465.735,169.639 490.41,169.639 
	502.747,157.301 "/>
<path style="fill:#95D5A7;" d="M9.253,194.313C9.253,228.382,36.871,256,70.94,256s61.687-27.618,61.687-61.687
	c0,34.068,27.618,61.687,61.687,61.687S256,228.382,256,194.313C256,228.382,283.618,256,317.687,256s61.687-27.618,61.687-61.687
	c0,34.068,27.618,61.687,61.687,61.687s61.687-27.618,61.687-61.687v-37.012H9.253V194.313z"/>
<g>
	<path style="fill:#80CB93;" d="M478.072,157.301v37.012c0,29.843-21.193,54.735-49.349,60.451
		c3.986,0.809,8.112,1.236,12.337,1.236c34.068,0,61.687-27.618,61.687-61.687v-37.012H478.072z"/>
	<path style="fill:#80CB93;" d="M305.349,254.764c3.986,0.809,8.112,1.236,12.337,1.236c34.068,0,61.687-27.618,61.687-61.687
		h-13.371c-6.058,0-11.162,4.409-12.174,10.382C349.575,229.789,330.167,249.725,305.349,254.764z"/>
	<path style="fill:#80CB93;" d="M181.976,254.764c3.986,0.809,8.112,1.236,12.337,1.236C228.382,256,256,228.382,256,194.313
		h-13.371c-6.058,0-11.162,4.409-12.174,10.382C226.202,229.789,206.794,249.725,181.976,254.764z"/>
	<path style="fill:#80CB93;" d="M58.602,254.764C62.589,255.573,66.714,256,70.94,256c34.068,0,61.687-27.618,61.687-61.687h-13.371
		c-6.058,0-11.162,4.409-12.174,10.382C102.828,229.789,83.42,249.725,58.602,254.764z"/>
</g>
<rect x="293.012" y="293.012" style="fill:#D1E5F5;" width="148.048" height="135.711"/>
<rect x="367.036" y="293.012" style="fill:#B4D8F1;" width="74.024" height="135.711"/>
<g>
	<path style="fill:#797781;" d="M126.458,437.976c-8.504,0-15.422-6.918-15.422-15.422s6.918-15.422,15.422-15.422
		s15.422,6.918,15.422,15.422S134.962,437.976,126.458,437.976z"/>
	<path style="fill:#797781;" d="M188.145,437.976c-8.504,0-15.422-6.918-15.422-15.422s6.918-15.422,15.422-15.422
		c8.504,0,15.422,6.918,15.422,15.422S196.649,437.976,188.145,437.976z"/>
</g>
<path style="fill:#D8D8DA;" d="M206.651,400.964h-98.699c-4.514,0-8.368-3.257-9.123-7.707l-11.031-65.083H70.94
	c-5.11,0-9.253-4.142-9.253-9.253c0-5.111,4.143-9.253,9.253-9.253h24.675c4.514,0,8.368,3.257,9.122,7.707l2.667,15.734h111.584
	c2.85,0,5.539,1.314,7.294,3.559c1.753,2.245,2.375,5.173,1.683,7.939l-12.337,49.349
	C214.597,398.074,210.896,400.964,206.651,400.964z M115.769,382.458h83.657l7.711-30.843h-96.595L115.769,382.458z"/>
<path style="fill:#2E2D31;" d="M512,157.301c0-2.555-1.035-4.867-2.709-6.541c0,0-0.001-0.001-0.001-0.002l-74.024-74.024
	c-1.735-1.735-4.089-2.709-6.542-2.709h-185.06c-5.11,0-9.253,4.142-9.253,9.253c0,5.111,4.143,9.253,9.253,9.253h181.228
	l55.518,55.518H31.591L87.109,92.53h107.204c5.11,0,9.253-4.142,9.253-9.253c0-5.111-4.143-9.253-9.253-9.253H83.277
	c-2.454,0-4.808,0.975-6.542,2.709L2.711,150.757c0,0.001-0.001,0.001-0.001,0.001C1.035,152.434,0,154.746,0,157.301v37.012
	c0,14.796,4.559,28.544,12.337,39.925v194.485c0,5.111,4.143,9.253,9.253,9.253h61.687c5.11,0,9.253-4.142,9.253-9.253
	s-4.143-9.253-9.253-9.253H30.843V252.794c11.415,7.851,25.225,12.459,40.096,12.459c26.396,0,49.47-14.49,61.687-35.935
	c12.216,21.445,35.291,35.935,61.687,35.935s49.47-14.49,61.687-35.935c12.216,21.445,35.291,35.935,61.687,35.935
	s49.47-14.49,61.687-35.935c12.216,21.445,35.291,35.935,61.687,35.935c14.871,0,28.682-4.608,40.096-12.459V419.47h-30.843V293.012
	c0-5.111-4.143-9.253-9.253-9.253H293.012c-5.11,0-9.253,4.142-9.253,9.253V419.47h-52.434c-5.11,0-9.253,4.142-9.253,9.253
	s4.143,9.253,9.253,9.253H490.41c5.11,0,9.253-4.142,9.253-9.253V234.238C507.441,222.857,512,209.109,512,194.313V157.301z
	 M302.265,302.265h55.518V419.47h-55.518V302.265z M376.289,419.47V302.265h55.518V419.47H376.289z M441.06,246.747
	c-28.913,0-52.434-23.521-52.434-52.434c0-5.111-4.143-9.253-9.253-9.253s-9.253,4.142-9.253,9.253
	c0,28.913-23.521,52.434-52.434,52.434c-28.913,0-52.434-23.521-52.434-52.434c0-5.111-4.143-9.253-9.253-9.253
	c-5.11,0-9.253,4.142-9.253,9.253c0,28.913-23.521,52.434-52.434,52.434s-52.434-23.521-52.434-52.434
	c0-5.111-4.143-9.253-9.253-9.253c-5.11,0-9.253,4.142-9.253,9.253c0,28.913-23.521,52.434-52.434,52.434
	s-52.434-23.521-52.434-52.434v-27.759h474.988v27.759C493.494,223.226,469.973,246.747,441.06,246.747z"/>
<g>
</g>
<g>
</g>
<g>
</g>
<g>
</g>
<g>
</g>
<g>
</g>
<g>
</g>
<g>
</g>
<g>
</g>
<g>
</g>
<g>
</g>
<g>
</g>
<g>
</g>
<g>
</g>
<g>
</g>
</svg>
